<svg xmlns="http://www.w3.org/2000/svg" width="16" height="10" viewBox="0 0 16 10">
  <metadata><?xpacket begin="﻿" id="W5M0MpCehiHzreSzNTczkc9d"?>
<x:xmpmeta xmlns:x="adobe:ns:meta/" x:xmptk="Adobe XMP Core 5.6-c138 79.159824, 2016/09/14-01:09:01        ">
   <rdf:RDF xmlns:rdf="http://www.w3.org/1999/02/22-rdf-syntax-ns#">
      <rdf:Description rdf:about=""/>
   </rdf:RDF>
</x:xmpmeta>
                                                                                                    
                                                                                                    
                                                                                                    
                                                                                                    
                                                                                                    
                                                                                                    
                                                                                                    
                                                                                                    
                                                                                                    
                                                                                                    
                                                                                                    
                                                                                                    
                                                                                                    
                                                                                                    
                                                                                                    
                                                                                                    
                                                                                                    
                                                                                                    
                                                                                                    
                                                                                                    
                           
<?xpacket end="w"?></metadata>
<defs>
    <style>
      .cls-1 {
        fill: #d7d7d7;
        fill-rule: evenodd;
      }
    </style>
  </defs>
  <path id="形状_5" data-name="形状 5" class="cls-1" d="M76,5c0,1.6-3.3,5-8,5-4.582,0-8-3.35-8-5s3.434-5,8-5c4.739,0,8,3.345,8,5h0ZM68.007,0.912A3.977,3.977,0,0,0,64.152,5a3.862,3.862,0,1,0,7.712,0A3.977,3.977,0,0,0,68.007.912ZM68,2.39a2.532,2.532,0,0,0-2.456,2.6,2.459,2.459,0,1,0,4.91,0A2.532,2.532,0,0,0,68,2.39Z" transform="translate(-60)"/>
</svg>
