<svg xmlns="http://www.w3.org/2000/svg" width="16" height="16" viewBox="0 0 16 16">
  <metadata><?xpacket begin="﻿" id="W5M0MpCehiHzreSzNTczkc9d"?>
<x:xmpmeta xmlns:x="adobe:ns:meta/" x:xmptk="Adobe XMP Core 5.6-c138 79.159824, 2016/09/14-01:09:01        ">
   <rdf:RDF xmlns:rdf="http://www.w3.org/1999/02/22-rdf-syntax-ns#">
      <rdf:Description rdf:about=""/>
   </rdf:RDF>
</x:xmpmeta>
                                                                                                    
                                                                                                    
                                                                                                    
                                                                                                    
                                                                                                    
                                                                                                    
                                                                                                    
                                                                                                    
                                                                                                    
                                                                                                    
                                                                                                    
                                                                                                    
                                                                                                    
                                                                                                    
                                                                                                    
                                                                                                    
                                                                                                    
                                                                                                    
                                                                                                    
                                                                                                    
                           
<?xpacket end="w"?></metadata>
<defs>
    <style>
      .cls-1 {
        fill: #d7d7d7;
        fill-rule: evenodd;
      }
    </style>
  </defs>
  <path id="形状_7" data-name="形状 7" class="cls-1" d="M75.376,61.839H72.534V60.822A0.8,0.8,0,0,0,71.717,60H64.242a0.8,0.8,0,0,0-.817.821V61.8H60.583a0.667,0.667,0,0,0-.584.626,0.6,0.6,0,0,0,.584.587H75.415A0.6,0.6,0,0,0,76,62.426,0.666,0.666,0,0,0,75.376,61.839Zm-2.258,2.425H62.841a0.45,0.45,0,0,0-.389.157,0.5,0.5,0,0,0-.156.391v9.467A1.732,1.732,0,0,0,64.009,76h7.98A1.733,1.733,0,0,0,73.7,74.279V64.812a0.567,0.567,0,0,0-.584-0.548h0ZM66.5,73.379a0.584,0.584,0,1,1-1.168,0V67.2a0.584,0.584,0,1,1,1.168,0v6.181Zm4.126,0a0.584,0.584,0,1,1-1.168,0V67.2a0.584,0.584,0,1,1,1.168,0v6.181h0Z" transform="translate(-60 -60)"/>
</svg>
