<svg xmlns="http://www.w3.org/2000/svg" width="23" height="23" viewBox="0 0 23 23">
  <metadata><?xpacket begin="﻿" id="W5M0MpCehiHzreSzNTczkc9d"?>
<x:xmpmeta xmlns:x="adobe:ns:meta/" x:xmptk="Adobe XMP Core 5.6-c138 79.159824, 2016/09/14-01:09:01        ">
   <rdf:RDF xmlns:rdf="http://www.w3.org/1999/02/22-rdf-syntax-ns#">
      <rdf:Description rdf:about=""/>
   </rdf:RDF>
</x:xmpmeta>
                                                                                                    
                                                                                                    
                                                                                                    
                                                                                                    
                                                                                                    
                                                                                                    
                                                                                                    
                                                                                                    
                                                                                                    
                                                                                                    
                                                                                                    
                                                                                                    
                                                                                                    
                                                                                                    
                                                                                                    
                                                                                                    
                                                                                                    
                                                                                                    
                                                                                                    
                                                                                                    
                           
<?xpacket end="w"?></metadata>
<defs>
    <style>
      .cls-1 {
        fill: #666;
        fill-rule: evenodd;
      }
    </style>
  </defs>
  <path id="形状_41" data-name="形状 41" class="cls-1" d="M5442.25,2721.38h-2.88v2.87h2.88v-2.87Zm0-4.32h-2.88v2.88h2.88v-2.88Zm2.87-10.06h-1.43v2.87h-2.88V2707h-8.62v2.87h-2.88V2707h-1.44a2.876,2.876,0,0,0-2.87,2.87v17.26a2.876,2.876,0,0,0,2.87,2.87h17.25a2.879,2.879,0,0,0,2.88-2.87v-17.26a2.879,2.879,0,0,0-2.88-2.87h0Zm0,20.13h-17.25v-12.94h17.25v12.94Zm-11.5-5.75h-2.87v2.87h2.87v-2.87Zm4.32,0h-2.88v2.87h2.88v-2.87Zm0-4.32h-2.88v2.88h2.88v-2.88Zm0,0" transform="translate(-5425 -2707)"/>
</svg>
