<svg xmlns="http://www.w3.org/2000/svg" width="51" height="52" viewBox="0 0 51 52">
  <metadata><?xpacket begin="﻿" id="W5M0MpCehiHzreSzNTczkc9d"?>
<x:xmpmeta xmlns:x="adobe:ns:meta/" x:xmptk="Adobe XMP Core 5.6-c138 79.159824, 2016/09/14-01:09:01        ">
   <rdf:RDF xmlns:rdf="http://www.w3.org/1999/02/22-rdf-syntax-ns#">
      <rdf:Description rdf:about=""/>
   </rdf:RDF>
</x:xmpmeta>
                                                                                                    
                                                                                                    
                                                                                                    
                                                                                                    
                                                                                                    
                                                                                                    
                                                                                                    
                                                                                                    
                                                                                                    
                                                                                                    
                                                                                                    
                                                                                                    
                                                                                                    
                                                                                                    
                                                                                                    
                                                                                                    
                                                                                                    
                                                                                                    
                                                                                                    
                                                                                                    
                           
<?xpacket end="w"?></metadata>
<defs>
    <style>
      .cls-1 {
        fill: #b5b5b5;
        fill-rule: evenodd;
      }
    </style>
  </defs>
  <path id="形状_38" data-name="形状 38" class="cls-1" d="M419.5,262A26,26,0,1,0,445,288,25.754,25.754,0,0,0,419.5,262Zm0,48.749A22.754,22.754,0,1,1,441.812,288,22.534,22.534,0,0,1,419.5,310.749Zm9.562-21.124h-7.968v8.125a1.594,1.594,0,1,1-3.187,0v-8.125h-7.969a1.625,1.625,0,0,1,0-3.25h7.969V278.25a1.594,1.594,0,1,1,3.187,0v8.125h7.968a1.625,1.625,0,0,1,0,3.25h0Z" transform="translate(-394 -262)"/>
</svg>
