<svg xmlns="http://www.w3.org/2000/svg" width="16.03" height="17.03" viewBox="0 0 16.03 17.03">
  <metadata><?xpacket begin="﻿" id="W5M0MpCehiHzreSzNTczkc9d"?>
<x:xmpmeta xmlns:x="adobe:ns:meta/" x:xmptk="Adobe XMP Core 5.6-c138 79.159824, 2016/09/14-01:09:01        ">
   <rdf:RDF xmlns:rdf="http://www.w3.org/1999/02/22-rdf-syntax-ns#">
      <rdf:Description rdf:about=""/>
   </rdf:RDF>
</x:xmpmeta>
                                                                                                    
                                                                                                    
                                                                                                    
                                                                                                    
                                                                                                    
                                                                                                    
                                                                                                    
                                                                                                    
                                                                                                    
                                                                                                    
                                                                                                    
                                                                                                    
                                                                                                    
                                                                                                    
                                                                                                    
                                                                                                    
                                                                                                    
                                                                                                    
                                                                                                    
                                                                                                    
                           
<?xpacket end="w"?></metadata>
<defs>
    <style>
      .cls-1 {
        fill: #666;
        fill-rule: evenodd;
      }
    </style>
  </defs>
  <path id="形状_39_拷贝" data-name="形状 39 拷贝" class="cls-1" d="M7221.21,1957.48l6.52-6.93a0.951,0.951,0,0,0,0-1.28l-0.03-.03a0.828,0.828,0,0,0-1.21,0l-6.52,6.93-6.52-6.93a0.817,0.817,0,0,0-1.2,0l-0.04.03a0.951,0.951,0,0,0,0,1.28l6.53,6.93-6.53,6.92a0.973,0.973,0,0,0,0,1.28l0.04,0.03a0.817,0.817,0,0,0,1.2,0l6.52-6.92,6.52,6.92a0.828,0.828,0,0,0,1.21,0l0.03-.03a0.951,0.951,0,0,0,0-1.28Z" transform="translate(-7211.97 -1948.97)"/>
</svg>
