<svg xmlns="http://www.w3.org/2000/svg" width="14.03" height="10" viewBox="0 0 14.03 10">
  <metadata><?xpacket begin="﻿" id="W5M0MpCehiHzreSzNTczkc9d"?>
<x:xmpmeta xmlns:x="adobe:ns:meta/" x:xmptk="Adobe XMP Core 5.6-c138 79.159824, 2016/09/14-01:09:01        ">
   <rdf:RDF xmlns:rdf="http://www.w3.org/1999/02/22-rdf-syntax-ns#">
      <rdf:Description rdf:about=""/>
   </rdf:RDF>
</x:xmpmeta>
                                                                                                    
                                                                                                    
                                                                                                    
                                                                                                    
                                                                                                    
                                                                                                    
                                                                                                    
                                                                                                    
                                                                                                    
                                                                                                    
                                                                                                    
                                                                                                    
                                                                                                    
                                                                                                    
                                                                                                    
                                                                                                    
                                                                                                    
                                                                                                    
                                                                                                    
                                                                                                    
                           
<?xpacket end="w"?></metadata>
<defs>
    <style>
      .cls-1 {
        fill: #fff;
        fill-rule: evenodd;
      }
    </style>
  </defs>
  <path id="形状_1" data-name="形状 1" class="cls-1" d="M2371.82,411.161a0.586,0.586,0,0,0-.83.025l-7.76,8.379-4.24-4.236a0.573,0.573,0,0,0-.82.006,0.591,0.591,0,0,0,0,.835l4.67,4.659v0c0.01,0,.01,0,0.01.006a0.688,0.688,0,0,0,.12.079,0.7,0.7,0,0,0,.06.04,0.593,0.593,0,0,0,.22.041,0.56,0.56,0,0,0,.22-0.046,0.813,0.813,0,0,1,.07-0.044,0.746,0.746,0,0,0,.12-0.086s0,0,.01-0.006v0l8.17-8.818a0.6,0.6,0,0,0-.02-0.833h0Z" transform="translate(-2358 -411)"/>
</svg>
