<svg xmlns="http://www.w3.org/2000/svg" width="16" height="16.031" viewBox="0 0 16 16.031">
  <metadata><?xpacket begin="﻿" id="W5M0MpCehiHzreSzNTczkc9d"?>
<x:xmpmeta xmlns:x="adobe:ns:meta/" x:xmptk="Adobe XMP Core 5.6-c138 79.159824, 2016/09/14-01:09:01        ">
   <rdf:RDF xmlns:rdf="http://www.w3.org/1999/02/22-rdf-syntax-ns#">
      <rdf:Description rdf:about=""/>
   </rdf:RDF>
</x:xmpmeta>
                                                                                                    
                                                                                                    
                                                                                                    
                                                                                                    
                                                                                                    
                                                                                                    
                                                                                                    
                                                                                                    
                                                                                                    
                                                                                                    
                                                                                                    
                                                                                                    
                                                                                                    
                                                                                                    
                                                                                                    
                                                                                                    
                                                                                                    
                                                                                                    
                                                                                                    
                                                                                                    
                           
<?xpacket end="w"?></metadata>
<defs>
    <style>
      .cls-1 {
        fill: #fff;
        fill-rule: evenodd;
      }
    </style>
  </defs>
  <path id="形状_7" data-name="形状 7" class="cls-1" d="M1764.7,338.667a1.1,1.1,0,0,1-1.6,0l-6.02-6.175-6.12,6.152a1.128,1.128,0,0,1-1.62,0,1.145,1.145,0,0,1,0-1.624l6.14-6.174-5.8-5.9a1.145,1.145,0,0,1,0-1.624,1.1,1.1,0,0,1,1.6,0l5.8,5.923,5.89-5.923a1.117,1.117,0,0,1,1.61,0,1.145,1.145,0,0,1,0,1.624l-5.91,5.946,6,6.151A1.174,1.174,0,0,1,1764.7,338.667Z" transform="translate(-1749.03 -323)"/>
</svg>
