<svg xmlns="http://www.w3.org/2000/svg" width="21" height="19" viewBox="0 0 21 19">
  <metadata><?xpacket begin="﻿" id="W5M0MpCehiHzreSzNTczkc9d"?>
<x:xmpmeta xmlns:x="adobe:ns:meta/" x:xmptk="Adobe XMP Core 5.6-c138 79.159824, 2016/09/14-01:09:01        ">
   <rdf:RDF xmlns:rdf="http://www.w3.org/1999/02/22-rdf-syntax-ns#">
      <rdf:Description rdf:about=""/>
   </rdf:RDF>
</x:xmpmeta>
                                                                                                    
                                                                                                    
                                                                                                    
                                                                                                    
                                                                                                    
                                                                                                    
                                                                                                    
                                                                                                    
                                                                                                    
                                                                                                    
                                                                                                    
                                                                                                    
                                                                                                    
                                                                                                    
                                                                                                    
                                                                                                    
                                                                                                    
                                                                                                    
                                                                                                    
                                                                                                    
                           
<?xpacket end="w"?></metadata>
<defs>
    <style>
      .cls-1 {
        fill: #d7d7d7;
        fill-rule: evenodd;
      }
    </style>
  </defs>
  <path id="形状_9_拷贝" data-name="形状 9 拷贝" class="cls-1" d="M2.949,78.987c5,0.024,10.011.007,15.015,0.008A2.6,2.6,0,0,0,20.839,76.7,127.215,127.215,0,0,0,20.81,63.37a2.514,2.514,0,0,0-2.158-1.993c-0.007.407-.012,0.812-0.018,1.218a2.225,2.225,0,0,1,.991,2.092q-0.06,5.488-.005,10.977c0.017,1.468-.626,2.06-2.068,2.051q-7.106-.05-14.21,0c-1.448.011-2.078-.586-2.063-2.051q0.056-5.488,0-10.977a2.224,2.224,0,0,1,.99-2.092q0.007-.61.015-1.217A2.631,2.631,0,0,0,0,64.274C0.01,68.2-.014,72.134.012,76.061A2.663,2.663,0,0,0,2.949,78.987ZM8.989,62.6a5.416,5.416,0,0,0,1.463-.014c0.855-.2,2.417.636,2.425-0.678,0.01-1.159-1.549-.306-2.223-0.6-0.622,0-1.111-.014-1.6,0s-1.1-.074-1.137.613C7.883,62.632,8.507,62.582,8.989,62.6Zm6.052,11.851c0.955-.034,1.338-0.244,1.322-1.28-0.017-1.011-.192-1.613-1.333-1.352-1.015-.2-1.341.2-1.341,1.217S13.915,74.493,15.041,74.452Zm-4.649-.061c1.066,0.227,1.416-.209,1.4-1.3-0.018-.961-0.236-1.337-1.27-1.329s-1.458.231-1.4,1.361C9.154,74.058,9.309,74.62,10.392,74.391Zm-4.6.057c0.987-.025,1.626-0.162,1.337-1.408,0.289-.987-0.192-1.259-1.18-1.273-1.009-.017-1.473.194-1.419,1.343C4.576,74.05,4.744,74.475,5.8,74.448Zm9.245-4.586c0.955-.033,1.337-0.244,1.322-1.28-0.017-1.01-.192-1.612-1.333-1.351-1.015-.2-1.34.2-1.341,1.217S13.915,69.9,15.041,69.862Zm-4.571-2.69c-1.12-.05-1.356.373-1.36,1.406s0.354,1.266,1.319,1.281c1.084,0.018,1.53-.323,1.3-1.4C11.955,67.385,11.412,67.212,10.471,67.172Zm-4.6,2.689c0.916-.052,1.384-0.18,1.344-1.255-0.038-.961-0.113-1.659-1.3-1.376-0.983-.185-1.39.138-1.369,1.195C4.559,69.4,4.691,69.929,5.866,69.861Zm8.52-7.161c0.035,0.478-.26,1.192.608,1.227s0.632-.673.676-1.163c0.027-.266.006-0.538,0.006-0.806s0.019-.539-0.006-0.8c-0.043-.493.179-1.187-0.694-1.155-0.75.028-.571,0.644-0.6,1.089A12.538,12.538,0,0,0,14.386,62.7Zm-9.153.01c0.035,0.479-.251,1.192.618,1.219s0.619-.684.668-1.173a7.776,7.776,0,0,0,.006-0.806c0-.267.018-0.538,0-0.8-0.04-.5.17-1.186-0.7-1.145-0.747.036-.56,0.653-0.586,1.1A12.465,12.465,0,0,0,5.232,62.71Zm-2.278-.139c0.5,0.067.987,0.089,0.981-.614s-0.464-.71-0.98-0.6l-0.676.026q-0.008.608-.015,1.217Zm14.987-1.218c-0.518-.106-0.977-0.084-0.977.608s0.466,0.707.979,0.611c0.232,0.007.461,0.017,0.691,0.025,0.006-.407.011-0.812,0.018-1.219Z" transform="translate(0 -60)"/>
</svg>
