<svg xmlns="http://www.w3.org/2000/svg" width="14" height="14" viewBox="0 0 14 14">
  <metadata><?xpacket begin="﻿" id="W5M0MpCehiHzreSzNTczkc9d"?>
<x:xmpmeta xmlns:x="adobe:ns:meta/" x:xmptk="Adobe XMP Core 5.6-c138 79.159824, 2016/09/14-01:09:01        ">
   <rdf:RDF xmlns:rdf="http://www.w3.org/1999/02/22-rdf-syntax-ns#">
      <rdf:Description rdf:about=""/>
   </rdf:RDF>
</x:xmpmeta>
                                                                                                    
                                                                                                    
                                                                                                    
                                                                                                    
                                                                                                    
                                                                                                    
                                                                                                    
                                                                                                    
                                                                                                    
                                                                                                    
                                                                                                    
                                                                                                    
                                                                                                    
                                                                                                    
                                                                                                    
                                                                                                    
                                                                                                    
                                                                                                    
                                                                                                    
                                                                                                    
                           
<?xpacket end="w"?></metadata>
<defs>
    <style>
      .cls-1 {
        fill: #fff;
        fill-rule: evenodd;
      }
    </style>
  </defs>
  <path id="形状_6_拷贝_13" data-name="形状 6 拷贝 13" class="cls-1" d="M120,42.367h14V44H120V42.367Zm11.015-5.075L127.8,40.685a1.115,1.115,0,0,1-.8.337,1.093,1.093,0,0,1-.8-0.339l-3.225-3.389a1,1,0,0,1-.275-0.681,1.047,1.047,0,0,1,1.074-1.017H123.8V35.591h2.123V33.1a1.075,1.075,0,0,1,2.147,0v2.493h2.084V35.6c0.021,0,.042,0,0.064,0a1.047,1.047,0,0,1,1.073,1.017A0.979,0.979,0,0,1,131.015,37.292ZM125.25,30h3.5v5.921h-3.5V30Z" transform="translate(-120 -30)"/>
</svg>
