<svg xmlns="http://www.w3.org/2000/svg" width="16" height="16" viewBox="0 0 16 16">
  <metadata><?xpacket begin="﻿" id="W5M0MpCehiHzreSzNTczkc9d"?>
<x:xmpmeta xmlns:x="adobe:ns:meta/" x:xmptk="Adobe XMP Core 5.6-c138 79.159824, 2016/09/14-01:09:01        ">
   <rdf:RDF xmlns:rdf="http://www.w3.org/1999/02/22-rdf-syntax-ns#">
      <rdf:Description rdf:about=""/>
   </rdf:RDF>
</x:xmpmeta>
                                                                                                    
                                                                                                    
                                                                                                    
                                                                                                    
                                                                                                    
                                                                                                    
                                                                                                    
                                                                                                    
                                                                                                    
                                                                                                    
                                                                                                    
                                                                                                    
                                                                                                    
                                                                                                    
                                                                                                    
                                                                                                    
                                                                                                    
                                                                                                    
                                                                                                    
                                                                                                    
                           
<?xpacket end="w"?></metadata>
<defs>
    <style>
      .cls-1 {
        fill: #d7d7d7;
        fill-rule: evenodd;
      }
    </style>
  </defs>
  <path id="形状_6" data-name="形状 6" class="cls-1" d="M60,44.133H76V46H60V44.133Zm12.589-5.8-3.677,3.878A1.273,1.273,0,0,1,68,42.6a1.25,1.25,0,0,1-.908-0.388l-3.685-3.873a1.146,1.146,0,0,1-.315-0.778A1.2,1.2,0,0,1,64.319,36.4h0.028V36.39h2.425V33.54a1.229,1.229,0,0,1,2.455,0v2.85h2.381V36.4c0.024,0,.048,0,0.073,0a1.2,1.2,0,0,1,1.227,1.163A1.121,1.121,0,0,1,72.589,38.333ZM66,30h4v6.767H66V30Z" transform="translate(-60 -30)"/>
</svg>
