<svg xmlns="http://www.w3.org/2000/svg" width="21" height="19" viewBox="0 0 21 19">
  <metadata><?xpacket begin="﻿" id="W5M0MpCehiHzreSzNTczkc9d"?>
<x:xmpmeta xmlns:x="adobe:ns:meta/" x:xmptk="Adobe XMP Core 5.6-c138 79.159824, 2016/09/14-01:09:01        ">
   <rdf:RDF xmlns:rdf="http://www.w3.org/1999/02/22-rdf-syntax-ns#">
      <rdf:Description rdf:about=""/>
   </rdf:RDF>
</x:xmpmeta>
                                                                                                    
                                                                                                    
                                                                                                    
                                                                                                    
                                                                                                    
                                                                                                    
                                                                                                    
                                                                                                    
                                                                                                    
                                                                                                    
                                                                                                    
                                                                                                    
                                                                                                    
                                                                                                    
                                                                                                    
                                                                                                    
                                                                                                    
                                                                                                    
                                                                                                    
                                                                                                    
                           
<?xpacket end="w"?></metadata>
<defs>
    <style>
      .cls-1 {
        fill: #fff;
        fill-rule: evenodd;
      }
    </style>
  </defs>
  <path id="形状_8" data-name="形状 8" class="cls-1" d="M1699.69,330.949v7.414h17.62v-7.414a0.845,0.845,0,0,1,1.69,0v7.414a1.666,1.666,0,0,1-1.69,1.637h-17.62a1.666,1.666,0,0,1-1.69-1.637v-7.414a0.845,0.845,0,0,1,1.69,0h0Zm8.92-9.95a0.832,0.832,0,0,1,.84.819v12.7h-1.69v-12.7A0.834,0.834,0,0,1,1708.61,321Zm0.03,12.988,3.45-3.344a0.858,0.858,0,0,1,1.19,0,0.8,0.8,0,0,1,0,1.158l-4.64,4.5-4.64-4.5a0.8,0.8,0,0,1,0-1.158,0.858,0.858,0,0,1,1.19,0Z" transform="translate(-1698 -321)"/>
</svg>
