<svg xmlns="http://www.w3.org/2000/svg" width="17" height="17" viewBox="0 0 17 17">
  <metadata><?xpacket begin="﻿" id="W5M0MpCehiHzreSzNTczkc9d"?>
<x:xmpmeta xmlns:x="adobe:ns:meta/" x:xmptk="Adobe XMP Core 5.6-c138 79.159824, 2016/09/14-01:09:01        ">
   <rdf:RDF xmlns:rdf="http://www.w3.org/1999/02/22-rdf-syntax-ns#">
      <rdf:Description rdf:about=""/>
   </rdf:RDF>
</x:xmpmeta>
                                                                                                    
                                                                                                    
                                                                                                    
                                                                                                    
                                                                                                    
                                                                                                    
                                                                                                    
                                                                                                    
                                                                                                    
                                                                                                    
                                                                                                    
                                                                                                    
                                                                                                    
                                                                                                    
                                                                                                    
                                                                                                    
                                                                                                    
                                                                                                    
                                                                                                    
                                                                                                    
                           
<?xpacket end="w"?></metadata>
<defs>
    <style>
      .cls-1 {
        fill: #d7d7d7;
        fill-rule: evenodd;
      }
    </style>
  </defs>
  <path id="load" class="cls-1" d="M42.988,74.967a0.647,0.647,0,0,1-1.113.661l-0.007-.012A0.641,0.641,0,0,1,42.1,74.73a0.657,0.657,0,0,1,.892.237h0Zm-3.831,1.384a0.655,0.655,0,0,1-1.309,0V75.9a0.655,0.655,0,0,1,1.309,0v0.455Zm-4.012-.733a0.649,0.649,0,0,1-.883.246h0l-0.008,0A0.644,0.644,0,0,1,34,74.982l0.008-.015,0.484-.846a0.668,0.668,0,0,1,.9-0.241,0.652,0.652,0,0,1,.232.891l-0.483.846h0ZM32.033,72.99a0.656,0.656,0,0,1-.893-0.241,0.65,0.65,0,0,1,.232-0.892l1.3-.752a0.653,0.653,0,1,1,.651,1.133Zm-1.384-3.839A0.647,0.647,0,0,1,30,68.506h0v0a0.649,0.649,0,0,1,.644-0.654h2.031a0.648,0.648,0,0,1,.65.646h0v0a0.649,0.649,0,0,1-.643.654H30.649Zm0.725-4.015a0.635,0.635,0,0,1-.232-0.886,0.648,0.648,0,0,1,.892-0.241l2.2,1.277a0.649,0.649,0,1,1-.65,1.124Zm2.637-3.109,1.533,2.659a0.656,0.656,0,0,0,.9.237,0.649,0.649,0,0,0,.232-0.891l-1.538-2.654a0.648,0.648,0,0,0-1.124.647h0v0Zm3.836-1.374a0.655,0.655,0,0,1,1.309,0v3.064a0.662,0.662,0,0,1-.66.659,0.652,0.652,0,0,1-.649-0.655h0V60.654Zm4.012,0.724a0.656,0.656,0,0,1,.892-0.241,0.644,0.644,0,0,1,.25.876l-0.009.016-1.536,2.659a0.655,0.655,0,0,1-.892.241,0.663,0.663,0,0,1-.237-0.9Zm3.122,2.631-2.666,1.535a0.654,0.654,0,0,0-.241.891,0.669,0.669,0,0,0,.892.237l2.666-1.535a0.644,0.644,0,0,0,.236-0.88h0l0-.007a0.636,0.636,0,0,0-.883-0.242h0Zm1.369,3.839a0.643,0.643,0,0,1,.65.636V68.5a0.645,0.645,0,0,1-.641.649H43.282a0.652,0.652,0,0,1,0-1.3h3.069Z" transform="translate(-30 -60)"/>
</svg>
