<svg xmlns="http://www.w3.org/2000/svg" width="14" height="14" viewBox="0 0 14 14">
  <metadata><?xpacket begin="﻿" id="W5M0MpCehiHzreSzNTczkc9d"?>
<x:xmpmeta xmlns:x="adobe:ns:meta/" x:xmptk="Adobe XMP Core 5.6-c138 79.159824, 2016/09/14-01:09:01        ">
   <rdf:RDF xmlns:rdf="http://www.w3.org/1999/02/22-rdf-syntax-ns#">
      <rdf:Description rdf:about=""/>
   </rdf:RDF>
</x:xmpmeta>
                                                                                                    
                                                                                                    
                                                                                                    
                                                                                                    
                                                                                                    
                                                                                                    
                                                                                                    
                                                                                                    
                                                                                                    
                                                                                                    
                                                                                                    
                                                                                                    
                                                                                                    
                                                                                                    
                                                                                                    
                                                                                                    
                                                                                                    
                                                                                                    
                                                                                                    
                                                                                                    
                           
<?xpacket end="w"?></metadata>
<defs>
    <style>
      .cls-1 {
        fill: #d7d7d7;
        fill-rule: evenodd;
      }
    </style>
  </defs>
  <path id="形状_6_拷贝_12" data-name="形状 6 拷贝 12" class="cls-1" d="M30,42.367H44V44H30V42.367Zm11.092-8.518-3.279-3.5A1.129,1.129,0,0,0,37,30a1.109,1.109,0,0,0-.81.35l-3.286,3.5a1.041,1.041,0,0,0-.281.7,1.073,1.073,0,0,0,1.094,1.05h0.025V35.6h2.163v2.574a1.1,1.1,0,0,0,2.188,0V35.6h2.123V35.595c0.022,0,.043,0,0.065,0a1.073,1.073,0,0,0,1.094-1.05A1.018,1.018,0,0,0,41.092,33.848Zm-5.876,7.527h3.567V35.263H35.216v6.112Z" transform="translate(-30 -30)"/>
</svg>
